# AST/ASF file generated using VICON BodyLanguage
# -----------------------------------------------
:version 1.10
:name VICON
:units
  mass 1.0
  length 0.45
  angle deg
:documentation
   .ast/.asf automatically generated from VICON data using
   VICON BodyBuilder and BodyLanguage model FoxedUp or BRILLIANT.MOD
:root
   order TX TY TZ RX RY RZ
   axis XYZ
   position 0 0 0  
   orientation 0 0 0 
:bonedata
  begin
     id 1 
     name lhipjoint
     direction 0.645893 -0.654526 0.392961 
     length 2.38111 
     axis 0 0 0  XYZ
  end
  begin
     id 2 
     name lfemur
     direction 0.34202 -0.939693 0  
     length 6.6822  
     axis 0 0 20  XYZ
    dof rx ry rz
    limits (-160.0 20.0)
           (-70.0 70.0)
           (-60.0 70.0)
  end
  begin
     id 3 
     name ltibia
     direction 0.34202 -0.939693 0   
     length 6.93904   
     axis 0 0 20   XYZ
    dof rx
    limits (-10.0 170.0)
  end
  begin
     id 4 
     name lfoot
     direction 0.0694967 -0.190941 0.979138   
     length 2.13616   
     axis -90 7.62852e-016 20   XYZ
    dof rx rz
    limits (-45.0 90.0)
           (-70.0 20.0)
  end
  begin
     id 5 
     name ltoes
     direction 1.535e-011 -4.2202e-011 1   
     length 1.07536   
     axis -90 7.62852e-016 20   XYZ
    dof rx
    limits (-90.0 20.0)
  end
  begin
     id 6 
     name rhipjoint
     direction -0.700219 -0.612087 0.367481   
     length 2.54621  
     axis 0 0 0  XYZ 
  end
  begin
     id 7 
     name rfemur
     direction -0.34202 -0.939693 0   
     length 6.55353   
     axis 0 0 -20   XYZ
    dof rx ry rz
    limits (-160.0 20.0)
           (-70.0 70.0)
           (-70.0 60.0)
  end
  begin
     id 8 
     name rtibia
     direction -0.34202 -0.939693 0   
     length 6.8736   
     axis 0 0 -20   XYZ
    dof rx
    limits (-10.0 170.0)
 end
 begin
     id 9 
     name rfoot
     direction -0.0679995 -0.186827 0.980037   
     length 2.1218  
     axis -90 -7.62852e-016 -20   XYZ
    dof rx rz
    limits (-45.0 90.0)
           (-20.0 70.0)
  end
  begin
     id 10 
     name rtoes
     direction -1.53589e-011 -4.21772e-011 1   
     length 1.06864   
     axis -90 -7.62852e-016 -20   XYZ
    dof rx
    limits (-90.0 20.0)
  end
  begin
     id 11 
     name lowerback
     direction -0.0416607 0.996347 -0.0745409   
     length 2.12205   
     axis 0 0 0   XYZ
    dof rx ry rz
    limits (-20.0 45.0)
           (-30.0 30.0)
           (-30.0 30.0)
  end
  begin
     id 12 
     name upperback
     direction -0.000153993 0.999276 -0.0380568   
     length 2.12759   
     axis 0 0 0   XYZ
    dof rx ry rz
    limits (-20.0 45.0)
           (-30.0 30.0)
           (-30.0 30.0)
  end
  begin
     id 13 
     name thorax
     direction 0.0187671 0.999821 -0.00241421   
     length 2.13704   
     axis 0 0 0   XYZ
    dof rx ry rz
    limits (-20.0 45.0)
           (-30.0 30.0)
           (-30.0 30.0)
  end
  begin
     id 14 
     name lowerneck
     direction 0.0268157 0.964865 0.261374   
     length 1.65253   
     axis 0 0 0   XYZ
    dof rx ry rz
    limits (-20.0 45.0)
           (-30.0 30.0)
           (-30.0 30.0)
  end
  begin
     id 15 
     name upperneck
     direction 0.00263774 0.939908 -0.341418   
     length 1.72375   
     axis 0 0 0   XYZ
    dof rx ry rz
    limits (-20.0 45.0)
           (-30.0 30.0)
           (-30.0 30.0)
  end
  begin
     id 16
     name head
     direction -0.00526001 0.989001 -0.147818  
     length 1.74878  
     axis 0 0 0   XYZ
    dof rx ry rz
    limits (-20.0 45.0)
           (-30.0 30.0)
           (-30.0 30.0)
  end
  begin
     id 17 
     name lclavicle
     direction 0.881214 0.461162 -0.103884  
     length 3.25108  
     axis 0 0 0   XYZ
    dof ry rz
    limits (-20.0 10.0)
           (0.0 20.0)
  end
  begin
     id 18 
     name lhumerus
     direction 1 -4.4899e-011 3.38092e-027   
     length 4.87408   
     axis 180 -30 -90   XYZ
    dof rx ry rz
    limits (-60.0 90.0)
           (-90.0 90.0)
           (-90.0 90.0)
  end
  begin
     id 19
     name lradius
     direction 1 -4.48931e-011 9.96288e-027   
     length 2.76729   
     axis 180 -30 -90   XYZ
    dof rx
    limits (-10.0 170.0)
  end
  begin
     id 20
     name lwrist
     direction 1 -4.4896e-011 1.50617e-026   
     length 1.38364   
     axis -9.31234e-015 90 90   XYZ
    dof ry
    limits (-180.0 0.0)
 end
  begin
     id 21 
     name lhand
     direction 1 -4.49038e-011 3.01286e-026   
     length 0.98922   
     axis -1.92217e-014 90 90   XYZ
    dof rx rz
    limits (-90.0 90.0)
           (-45.0 45.0)
  end
  begin
     id 22 
     name lfingers
     direction 1 -4.49051e-011 6.02588e-026   
     length 0.797535   
     axis -3.84436e-014 90 90   XYZ
    dof rx
    limits (0.0 90.0)
  end
  begin
     id 23
     name lthumb
     direction 0.707107 -6.34901e-011 0.707107   
     length 1.14511   
     axis -90 45 2.19363e-014   XYZ
    dof rx rz
    limits (-45.0 45.0)
           (-45.0 45.0)
  end
  begin
     id 24 
     name rclavicle
     direction -0.893894 0.441652 -0.0767889   
     length 3.29361  
     axis 0 0 0   XYZ 
    dof ry rz
    limits (-10.0 20.0)
           (-20.0 0.0)
  end
  begin
     id 25 
     name rhumerus
     direction -1 -4.48945e-011 8.0491e-028  
     length 4.71404   
     axis 180 30 90   XYZ
    dof rx ry rz
    limits (-90.0 60.0)
           (-90.0 90.0)
           (-90.0 90.0)
  end
  begin
     id 26 
     name rradius
     direction -1 -4.48986e-011 9.27795e-027   
     length 2.83468   
     axis 180 30 90   XYZ
    dof rx
    limits (-10.0 170.0)
  end
  begin
     id 27 
     name rwrist
     direction -1 -4.49029e-011 1.5064e-026   
     length 1.41734   
     axis -9.31234e-015 -90 -90   XYZ
    dof ry
    limits (-180.0 0.0)
  end
  begin
     id 28
     name rhand
     direction -1 -4.48857e-011 3.01165e-026   
     length 0.868195   
     axis -1.92217e-014 -90 -90   XYZ
    dof rx rz
    limits (-90.0 90.0)
           (-45.0 45.0)
  end
  begin
     id 29
     name rfingers
     direction -1 -4.49048e-011 6.02585e-026   
     length 0.699961   
     axis -3.84436e-014 -90 -90   XYZ
    dof rx
    limits (0.0 90.0)
  end
  begin
     id 30
     name rthumb
     direction -0.707107 -6.34854e-011 0.707107   
     length 1.00501   
     axis -90 -45 -2.19363e-014   XYZ
    dof rx rz
    limits (-45.0 45.0)
           (-45.0 45.0)
  end
:hierarchy
  begin
    root lhipjoint rhipjoint lowerback
    lhipjoint lfemur
    lfemur ltibia
    ltibia lfoot
    lfoot ltoes
    rhipjoint rfemur
    rfemur rtibia
    rtibia rfoot
    rfoot rtoes
    lowerback upperback
    upperback thorax
    thorax lowerneck lclavicle rclavicle
    lowerneck upperneck
    upperneck head
    lclavicle lhumerus
    lhumerus lradius
    lradius lwrist
    lwrist lhand lthumb
    lhand lfingers
    rclavicle rhumerus
    rhumerus rradius
    rradius rwrist
    rwrist rhand rthumb
    rhand rfingers
  end

#!OML:ASF H:\ManfredObstacles\Project 1\Capture day 2\Session 1\male.ASF
:FULLY-SPECIFIED
:DEGREES
23
root 1.3721 15.8462 29.0772 -172.808 3.79492 177.754
lowerback -4.91415 0.564318 -3.89128
upperback 0.231896 0.988817 0.0827943
thorax 2.92949 0.437363 2.34179
lowerneck -33.2663 1.91838 3.4555
upperneck 32.848 2.83044 -2.52446
head 17.8683 1.46012 -0.970111
rclavicle -5.85172e-015 7.15625e-015
rhumerus -33.9586 -18.2344 -77.4256
rradius 24.2463
rwrist 36.3303
rhand -1.5031 -6.71159
rfingers 7.12502
rthumb 24.1499 -35.2114
lclavicle -5.85172e-015 7.15625e-015
lhumerus -24.4572 13.0011 86.399
lradius 21.9005
lwrist -47.1665
lhand 1.00554 5.55676
lfingers 7.12502
lthumb 26.5531 33.7156
rfemur -5.57146 1.50637 24.9739
rtibia 19.6401
rfoot -10.6631 -19.7085
rtoes -11.4412
lfemur -27.246 -10.7517 -15.6197
ltibia 24.3543
lfoot 8.64866 17.4081
ltoes 7.68092
24
root 1.37525 15.8464 29.0747 -172.784 3.77853 177.734
lowerback -4.99746 0.560953 -3.91498
upperback 0.275255 0.990133 0.0825143
thorax 3.02073 0.434994 2.35664
lowerneck -33.1433 2.03098 3.7252
upperneck 32.5911 2.90084 -2.72729
head 17.7172 1.48229 -1.09351
rclavicle 1.29707e-014 3.97569e-015
rhumerus -33.9804 -18.3772 -77.3341
rradius 24.1133
rwrist 36.4736
rhand -1.35987 -6.83689
rfingers 7.12502
rthumb 24.2872 -35.3184
lclavicle 1.29707e-014 3.97569e-015
lhumerus -24.4426 14.0121 86.0229
lradius 21.3509
lwrist -48.5021
lhand 0.831194 5.43093
lfingers 7.12502
lthumb 26.3863 33.6149
rfemur -5.58299 1.5037 24.9656
rtibia 19.632
rfoot -10.6437 -19.7173
rtoes -11.4941
lfemur -27.2646 -10.7642 -15.628
ltibia 24.3528
lfoot 8.67136 17.3947
ltoes 7.61795
25
root 1.37807 15.8462 29.0725 -172.779 3.75599 177.742
lowerback -4.94842 0.553296 -3.88293
upperback 0.240989 0.976173 0.0635167
thorax 2.9595 0.430679 2.31692
lowerneck -33.0765 2.00313 3.64897
upperneck 32.5454 2.86513 -2.64147
head 17.6727 1.47165 -1.04974
rclavicle 5.09386e-016 -6.55989e-015
rhumerus -34.1663 -18.531 -77.2149
rradius 23.9744
rwrist 36.7455
rhand -1.30483 -6.82793
rfingers 7.12502
rthumb 24.34 -35.3024
lclavicle 5.09386e-016 -6.55989e-015
lhumerus -24.5885 14.8331 85.6329
lradius 20.9653
lwrist -49.1862
lhand 0.731942 5.3922
lfingers 7.12502
lthumb 26.2913 33.5903
rfemur -5.56979 1.47739 24.9878
rtibia 19.6191
rfoot -10.6172 -19.6997
rtoes -11.5323
lfemur -27.2704 -10.7397 -15.6169
ltibia 24.3602
lfoot 8.6654 17.3381
ltoes 7.55022
26
root 1.38084 15.8462 29.0686 -172.771 3.75699 177.75
lowerback -4.99872 0.526968 -3.85337
upperback 0.263596 0.941539 0.07002
thorax 3.01384 0.412269 2.30551
lowerneck -33.2253 1.97272 3.53381
upperneck 32.7624 2.87325 -2.56318
head 17.8176 1.47801 -0.991324
rclavicle -6.79595e-015 -3.37934e-015
rhumerus -34.2277 -18.5929 -77.1205
rradius 23.8419
rwrist 37.0735
rhand -1.17313 -6.8053
rfingers 7.12502
rthumb 24.4663 -35.2627
lclavicle -6.79595e-015 -3.37934e-015
lhumerus -24.7082 16.0625 85.122
lradius 20.5371
lwrist -50.5192
lhand 0.610542 5.07472
lfingers 7.12502
lthumb 26.175 33.2901
rfemur -5.55219 1.42156 25.0033
rtibia 19.5998
rfoot -10.6028 -19.6487
rtoes -11.5839
lfemur -27.2704 -10.7448 -15.5982
ltibia 24.3766
lfoot 8.66432 17.3658
ltoes 7.57655
27
root 1.38349 15.8465 29.0661 -172.75 3.72639 177.747
lowerback -4.87278 -1.23806 -3.96424
upperback 0.445625 -1.46186 1.64912
thorax 3.33937 -0.81157 3.82129
lowerneck -34.9837 3.24672 0.453906
upperneck 33.1996 6.40992 -2.19616
head 18.4578 2.46664 0.596409
rclavicle -2.33572e-015 1.43125e-014
rhumerus -31.8447 -12.0773 -77.4987
rradius 23.2049
rwrist 36.3938
rhand -0.985337 -6.85584
rfingers 7.12502
rthumb 24.6463 -35.2888
lclavicle -2.33572e-015 1.43125e-014
lhumerus -25.5069 23.3825 84.9869
lradius 20.816
lwrist -50.7378
lhand 0.968096 5.8375
lfingers 7.12502
lthumb 26.5173 34.0017
rfemur -5.55256 1.38034 25.0078
rtibia 19.5724
rfoot -10.6058 -19.6191
rtoes -11.6061
lfemur -27.3028 -10.8092 -15.5797
ltibia 24.4016
lfoot 8.68203 17.4063
ltoes 7.6003
28
root 1.38724 15.8468 29.0638 -172.748 3.73107 177.753
lowerback -4.95953 0.613132 -3.85631
upperback 0.388637 1.05853 0.00655171
thorax 3.11431 0.46668 2.25066
lowerneck -34.352 2.25383 4.11323
upperneck 33.0846 2.97554 -2.77311
head 18.2707 1.54117 -1.16435
rclavicle 5.55355e-015 -8.94531e-016
rhumerus -34.2334 -19.4094 -76.8446
rradius 23.5308
rwrist 37.7324
rhand -1.01014 -6.77274
rfingers 7.12502
rthumb 24.6225 -35.209
lclavicle 5.55355e-015 -8.94531e-016
lhumerus -24.5634 16.8934 84.7118
lradius 20.0495
lwrist -50.6706
lhand 0.962298 5.66009
lfingers 7.12502
lthumb 26.5118 33.8251
rfemur -5.5304 1.40679 25.0315
rtibia 19.5566
rfoot -10.5864 -19.6085
rtoes -11.5831
lfemur -27.2994 -10.8742 -15.5398
ltibia 24.4185
lfoot 8.68157 17.4761
ltoes 7.56268
